<?xml version="1.0" encoding="UTF-8"?>
<svg version="1.1" xmlns="http://www.w3.org/2000/svg" width="3000" height="2000">
<path d="M0 0 C29.04 0 58.08 0 88 0 C82.28694554 18.28177429 82.28694554 18.28177429 79.5625 25 C78.96805222 26.50102593 78.37431845 28.0023348 77.78125 29.50390625 C77.48734375 30.24398926 77.1934375 30.98407227 76.890625 31.74658203 C75.42038909 35.46650459 73.98421621 39.19880188 72.5625 42.9375 C72.303479 43.60587891 72.04445801 44.27425781 71.77758789 44.96289062 C70.70159703 47.80264956 70 49.93365764 70 53 C69.34 53 68.68 53 68 53 C67.79697266 54.07507813 67.79697266 54.07507813 67.58984375 55.171875 C67.0192924 57.90749871 66.33803096 60.56577884 65.5625 63.25 C65.31628906 64.12140625 65.07007813 64.9928125 64.81640625 65.890625 C64 68 64 68 62 69 C61.67 70.98 61.34 72.96 61 75 C56.71 86.55 52.42 98.1 48 110 C81.33 110 114.66 110 149 110 C149.99 106.7 150.98 103.4 152 100 C153.1617931 96.6865084 154.34315162 93.38950681 155.5625 90.09765625 C155.90664948 89.16142426 156.25079895 88.22519226 156.6053772 87.2605896 C157.73388155 84.19343145 158.86682406 81.12793496 160 78.0625 C160.7910104 75.91615506 161.58186049 73.76975103 162.37255859 71.62329102 C171.18370306 47.72483742 180.09297807 23.86284233 189 0 C217.71 0 246.42 0 276 0 C275.20484272 4.77094366 274.13375607 8.88596772 272.5 13.375 C272.11666504 14.44476074 272.11666504 14.44476074 271.72558594 15.53613281 C263.4754672 38.41453226 263.4754672 38.41453226 258.93115234 49.64038086 C257.87124638 52.32627262 257.11460658 55.02216608 256.375 57.8125 C256.11460937 58.78832031 255.85421875 59.76414062 255.5859375 60.76953125 C255.39257812 61.50558594 255.19921875 62.24164062 255 63 C254.34 63 253.68 63 253 63 C252.9079126 63.78632812 252.8158252 64.57265625 252.72094727 65.3828125 C251.78306431 70.08842504 250.15435622 74.39294426 248.46484375 78.875 C248.10789932 79.83535156 247.7509549 80.79570313 247.38319397 81.78515625 C246.23967743 84.85868019 245.08885269 87.92940399 243.9375 91 C242.81810951 93.99960722 241.70025645 96.99978406 240.58258057 100.00003052 C239.83251474 102.01318294 239.0818148 104.0260992 238.33050537 106.03878784 C235.86820909 112.64167485 233.44258962 119.25691346 231.04296875 125.8828125 C226.56499308 138.24264769 221.97169174 150.55892332 217.375 162.875 C216.54679738 165.09632523 215.71867215 167.31767931 214.890625 169.5390625 C214.48620178 170.62350647 214.08177856 171.70795044 213.6651001 172.82525635 C212.87179544 174.95281187 212.07893765 177.08053409 211.28656006 179.20843506 C209.5676146 183.82038147 207.84127688 188.42879216 206.07910156 193.02441406 C205.7942691 193.77071075 205.50943665 194.51700745 205.2159729 195.28591919 C204.475483 197.22220573 203.72944606 199.15636849 202.98291016 201.09033203 C201.83997955 203.96183491 201.83997955 203.96183491 202 207 C201.34 207 200.68 207 200 207 C199.91983643 207.75506836 199.83967285 208.51013672 199.75708008 209.28808594 C198.686414 214.53749163 196.77715926 219.38661207 194.88671875 224.390625 C194.27048393 226.04031281 194.27048393 226.04031281 193.64179993 227.72332764 C192.32876764 231.23414043 191.00810513 234.74202975 189.6875 238.25 C188.81007428 240.5948753 187.93311617 242.93992563 187.05664062 245.28515625 C180.65881403 262.37173127 180.65881403 262.37173127 177.85864258 269.50683594 C177.55420731 270.28315369 177.24977203 271.05947144 176.93611145 271.85931396 C173.98733097 278.60254223 169.69207052 282.90868023 163 286 C158.05052413 287.63665343 153.80046825 288.24534435 148.59594727 288.22705078 C147.892668 288.22734283 147.18938873 288.22763489 146.46479797 288.22793579 C144.16520377 288.22655446 141.86594309 288.21105057 139.56640625 288.1953125 C137.96215492 288.1915781 136.35790129 288.18873314 134.75364685 288.18673706 C130.54999392 288.17913422 126.34648119 288.15951484 122.1428833 288.1373291 C117.84592586 288.11679819 113.54894557 288.1077199 109.25195312 288.09765625 C100.83457138 288.0762655 92.41730318 288.04217043 84 288 C84.59021417 283.87326828 85.51923776 280.17619285 86.95507812 276.265625 C87.36121841 275.15160309 87.7673587 274.03758118 88.18580627 272.88980103 C88.85180092 271.08809952 88.85180092 271.08809952 89.53125 269.25 C89.99966728 267.97138503 90.46762863 266.69260296 90.93516541 265.41366577 C92.19036914 261.98425882 93.45210791 258.55729092 94.71522141 255.13079071 C96.02866815 251.56458726 97.33633191 247.9962641 98.64477539 244.42822266 C101.26691447 237.28126265 103.89648984 230.13705793 106.52862549 222.99377441 C107.89519348 219.28505441 109.26006522 215.57571203 110.62451172 211.86621094 C112.8924409 205.70134125 115.16358684 199.53766492 117.4375 193.375 C117.76927246 192.47555664 118.10104492 191.57611328 118.44287109 190.64941406 C118.92554443 189.34182129 118.92554443 189.34182129 119.41796875 188.0078125 C119.83296631 186.88342773 119.83296631 186.88342773 120.25634766 185.73632812 C124.4365095 174.46249953 128.71880591 163.23813449 133 152 C99.67 151.67 66.34 151.34 32 151 C31.01 154.3 30.02 157.6 29 161 C27.95847989 164.00663371 26.90011952 166.9979021 25.8046875 169.984375 C25.49991486 170.82207428 25.19514221 171.65977356 24.88113403 172.52285767 C23.88198921 175.26630581 22.87860942 178.00818228 21.875 180.75 C21.16783075 182.68826346 20.46080219 184.62657825 19.75390625 186.56494141 C13.86126452 202.70713952 7.91089823 218.82813925 1.93701172 234.94042969 C-2.1269323 245.90446436 -6.15282884 256.88156315 -10.140625 267.87353516 C-10.44291016 268.70524231 -10.74519531 269.53694946 -11.05664062 270.39385986 C-11.72639172 272.24412526 -12.39125513 274.09616313 -13.05273438 275.94940186 C-13.40142578 276.92177795 -13.75011719 277.89415405 -14.109375 278.89599609 C-14.42358398 279.77726166 -14.73779297 280.65852722 -15.06152344 281.5664978 C-16 284 -16 284 -18 288 C-46.71 288 -75.42 288 -105 288 C-102.75014707 277.87566179 -102.75014707 277.87566179 -101.27026367 273.92578125 C-100.93693024 273.0270076 -100.6035968 272.12823395 -100.26016235 271.20222473 C-99.89973846 270.24861557 -99.53931458 269.29500641 -99.16796875 268.3125 C-98.78434174 267.28263474 -98.40071472 266.25276947 -98.00546265 265.19169617 C-97.1743013 262.9624691 -96.34044639 260.73424483 -95.50418091 258.50692749 C-94.1595612 254.9255861 -92.82189224 251.34171674 -91.48608398 247.75708008 C-90.08062493 243.98570536 -88.67500278 240.21439704 -87.26679993 236.44404602 C-82.76180892 224.3803518 -78.30575686 212.29880307 -73.85964966 200.21328735 C-72.55349585 196.6630258 -71.24648561 193.11308067 -69.93920898 189.56323242 C-68.17877928 184.78280948 -66.41859647 180.0022958 -64.65869141 175.22167969 C-60.19057942 163.08475175 -55.72057327 150.94852153 -51.25 138.8125 C-50.81052032 137.6194223 -50.37104065 136.4263446 -49.91824341 135.19711304 C-43.78651137 118.55186206 -37.64437733 101.9104922 -31.49151611 85.27304077 C-27.11459329 73.43733821 -22.74483654 61.5990134 -18.3828125 49.7578125 C-18.02359081 48.78267323 -18.02359081 48.78267323 -17.65711212 47.78783417 C-15.05911951 40.73511587 -12.4618983 33.68211384 -9.86523438 26.62890625 C-9.21311478 24.85796097 -9.21311478 24.85796097 -8.54782104 23.05123901 C-7.73423824 20.84178189 -6.92084989 18.63225315 -6.10769653 16.42263794 C-5.55866165 14.9317012 -5.55866165 14.9317012 -4.99853516 13.41064453 C-4.68340973 12.55455597 -4.3682843 11.69846741 -4.04360962 10.81643677 C-2.7061857 7.20706997 -1.35153937 3.60410499 0 0 Z " fill="#D61820" transform="translate(451,856)"/>
<path d="M0 0 C28.71 0 57.42 0 87 0 C84.75015254 10.12431358 84.75015254 10.12431358 83.30761719 13.97460938 C82.98678162 14.84001343 82.66594604 15.70541748 82.33538818 16.5970459 C81.99267883 17.50345825 81.64996948 18.40987061 81.296875 19.34375 C80.93660217 20.31171509 80.57632935 21.27968018 80.20513916 22.27697754 C79.05897235 25.35342313 77.90486517 28.42681042 76.75 31.5 C75.24246671 35.53038349 73.73806415 39.56193092 72.234375 43.59375 C71.86985229 44.56989258 71.50532959 45.54603516 71.12976074 46.55175781 C65.75380214 60.87531095 65.75380214 60.87531095 60.96386719 75.40039062 C60 78 60 78 58 79 C57.86722656 79.80695313 57.73445312 80.61390625 57.59765625 81.4453125 C56.80329314 86.1699558 55.13581573 90.40893407 53.4375 94.875 C53.10814453 95.75414062 52.77878906 96.63328125 52.43945312 97.5390625 C51.63113386 99.69458053 50.81787706 101.84809441 50 104 C54.05246746 102.09211848 57.30672964 99.45242632 60.75 96.625 C66.02577122 92.34678924 71.36010974 88.17569681 76.8125 84.125 C84.95368958 78.06988394 92.95271523 71.84018973 100.95019531 65.59716797 C109.48575069 58.94642913 118.09731874 52.3933608 126.69458008 45.82275391 C133.14034012 40.89556753 139.57194032 35.95025199 146 31 C148.16644651 29.33304708 150.33322497 27.66652587 152.5 26 C153.58333938 25.16667453 154.66667272 24.3333412 155.75 23.5 C162.25 18.5 162.25 18.5 163.87792969 17.24780273 C164.95157014 16.42188817 166.02513891 15.59588042 167.09863281 14.76977539 C169.95465919 12.57213002 172.81223565 10.37653636 175.671875 8.18359375 C176.5700293 7.49426758 176.5700293 7.49426758 177.48632812 6.79101562 C178.64082281 5.90500807 179.79575402 5.01956896 180.95117188 4.13476562 C183.56824852 2.17580972 183.56824852 2.17580972 186 0 C188.08619022 -0.09417773 190.17560477 -0.11742878 192.26391602 -0.11352539 C193.2443689 -0.11374443 193.2443689 -0.11374443 194.24462891 -0.1139679 C196.41442128 -0.11326883 198.58412879 -0.10547678 200.75390625 -0.09765625 C202.25463311 -0.09579205 203.75536057 -0.09436816 205.25608826 -0.09336853 C209.21318226 -0.08954352 213.17023978 -0.0797134 217.12731934 -0.06866455 C221.16234849 -0.05845006 225.19738353 -0.05387083 229.23242188 -0.04882812 C237.15496469 -0.03809111 245.07747781 -0.0210149 253 0 C249.80403303 3.22808724 246.67660713 6.31707047 243 9 C242.34 9 241.68 9 241 9 C241 9.66 241 10.32 241 11 C239.58754646 11.98934898 238.16768992 12.9699037 236.71142578 13.89355469 C233.99951089 15.64682121 231.48730439 17.64575866 228.9375 19.625 C227.7851883 20.51696849 226.63284366 21.40889443 225.48046875 22.30078125 C224.60914307 22.97681396 224.60914307 22.97681396 223.72021484 23.66650391 C221.06868665 25.72194628 218.40930672 27.76713611 215.75 29.8125 C215.22462646 30.21678223 214.69925293 30.62106445 214.15795898 31.03759766 C208.88725589 35.09150249 203.60405261 39.12903216 198.31982422 43.1652832 C194.96561305 45.72823481 191.61413523 48.29445027 188.2734375 50.875 C187.41347168 51.53918945 187.41347168 51.53918945 186.53613281 52.21679688 C185.98795898 52.64025391 185.43978516 53.06371094 184.875 53.5 C181.54394652 56.07133952 178.20317732 58.5953583 174.75 61 C171.9520503 62.71230177 171.9520503 62.71230177 171 65 C170.01 65 169.02 65 168 65 C168 65.66 168 66.32 168 67 C166.26451831 68.44526736 164.46024037 69.8087222 162.625 71.125 C161.62726563 71.84945312 160.62953125 72.57390625 159.6015625 73.3203125 C157 75 157 75 155 75 C155 75.66 155 76.32 155 77 C153.07340348 78.49915228 151.14183998 79.88077917 149.125 81.25 C143.08598139 85.44906077 137.23177631 89.84447636 131.4375 94.375 C130.67646973 94.96958008 129.91543945 95.56416016 129.13134766 96.17675781 C126.09109915 98.55843216 123.06716054 100.94413834 120.09765625 103.4140625 C118 105 118 105 116 105 C116 105.66 116 106.32 116 107 C114.03852126 108.38938077 112.03833424 109.7260411 110 111 C116.33002892 123.73193812 122.77551891 136.40350464 129.25 149.0625 C129.76188873 150.06388 130.27377747 151.06526001 130.80117798 152.09698486 C136.65504803 163.54692476 142.52227416 174.98815279 148.49951172 186.37426758 C153.35257708 195.63470862 158.10953004 204.94429045 162.875 214.25 C168.70681645 225.63667435 174.54525517 237.01945093 180.4375 248.375 C181.25734375 249.95607544 181.25734375 249.95607544 182.09375 251.5690918 C184.6514102 256.49619111 187.21729512 261.41877695 189.79902649 266.33331299 C190.73057222 268.10716265 191.66034524 269.88194289 192.59008789 271.65673828 C193.75370638 273.87701976 194.92070081 276.09553623 196.09155273 278.31201172 C196.60532471 279.29314941 197.11909668 280.27428711 197.6484375 281.28515625 C198.10395996 282.15019775 198.55948242 283.01523926 199.02880859 283.90649414 C200 286 200 286 200 288 C190.1508346 288.22427983 180.30148506 288.42561908 170.45127392 288.59840012 C165.8764626 288.67935175 161.30207498 288.76793484 156.7277832 288.87451172 C152.30595127 288.97724639 147.88416006 289.0592119 143.4616642 289.12732697 C141.78200283 289.15674307 140.10245077 289.19339984 138.42311668 289.2377243 C126.30504412 289.55097548 115.55848076 288.75351713 105.75488281 280.80883789 C99.91458275 274.78897378 96.37334453 266.08681259 92.5625 258.6875 C92.05734863 257.71329102 91.55219727 256.73908203 91.03173828 255.73535156 C89.35107018 252.49199266 87.67526703 249.24615167 86 246 C84.42614144 242.95406222 82.85144312 239.90855858 81.27677917 236.86303711 C79.66122229 233.73834476 78.04619236 230.61338313 76.43237305 227.48779297 C72.9485102 220.74365026 69.43379059 214.01738234 65.875 207.3125 C61.27647101 198.64309437 56.9015602 189.86430629 52.55224609 181.06762695 C49.51966822 174.95301164 46.38607608 168.92681246 43 163 C39.95285895 164.93642543 36.97153311 166.94904271 34 169 C32.59621094 169.91072266 32.59621094 169.91072266 31.1640625 170.83984375 C22.95499671 176.69864276 20.53539296 182.68283507 17.66943359 191.93896484 C16.61642367 195.18094506 15.30474199 198.28800712 14 201.4375 C11.77558181 206.96039583 9.68168068 212.51485791 7.6875 218.125 C7.30561523 219.1912561 7.30561523 219.1912561 6.91601562 220.27905273 C5.67037319 223.82633354 4.61388623 227.28779385 4 231 C3.34 231 2.68 231 2 231 C1.87331436 231.8793924 1.74662872 232.75878479 1.61610413 233.66482544 C1.04490316 236.75692443 0.24532496 239.42635341 -0.85766602 242.36279297 C-1.43611267 243.9148645 -1.43611267 243.9148645 -2.02624512 245.49829102 C-2.43137329 246.56877686 -2.83650146 247.6392627 -3.25390625 248.7421875 C-3.62640503 249.73871338 -3.99890381 250.73523926 -4.38269043 251.76196289 C-5.77001399 255.46853966 -7.16681777 259.17156253 -8.5625 262.875 C-11.676875 271.16625 -14.79125 279.4575 -18 288 C-47.04 288 -76.08 288 -106 288 C-97.94509966 264.98599902 -97.94509966 264.98599902 -94.7578125 256.2890625 C-94.2099408 254.78922066 -94.2099408 254.78922066 -93.65100098 253.25907898 C-92.47715983 250.04717116 -91.30120044 246.83604452 -90.125 243.625 C-89.28432035 241.32707514 -88.44366323 239.02914204 -87.60302734 236.73120117 C-81.26887218 219.4256023 -74.89106348 202.13630757 -68.49453735 184.85368347 C-68.1431369 183.90423355 -67.79173645 182.95478363 -67.4296875 181.9765625 C-67.07546722 181.01949905 -66.72124695 180.06243561 -66.35629272 179.07637024 C-61.80837485 166.78468484 -57.2796328 154.48593257 -52.75 142.1875 C-51.86246956 139.77799401 -50.974937 137.36848881 -50.08740234 134.95898438 C-47.39136145 127.63941134 -44.69565054 120.3197168 -42 113 C-35.41985775 95.13241036 -28.83832902 77.2653335 -22.25299072 59.3996582 C-20.99961568 55.99895725 -19.746603 52.59812296 -18.49365234 49.19726562 C-16.51230485 43.81975973 -14.52947922 38.44280104 -12.54553223 33.06625366 C-11.81792583 31.09379263 -11.09077895 29.12116202 -10.36413574 27.14834595 C-9.3677491 24.44346997 -8.36963526 21.73923734 -7.37109375 19.03515625 C-7.08662888 18.26173889 -6.802164 17.48832153 -6.50907898 16.69146729 C-4.43475326 11.08237857 -2.22326885 5.55817212 0 0 Z " fill="#D61820" transform="translate(926,856)"/>
<path d="M0 0 C3.67714786 0.01718485 7.35364268 0.00714271 11.03076744 -0.01071739 C13.92575793 -0.02168672 16.82059967 -0.01805124 19.71559525 -0.01033401 C21.71367077 -0.00744115 23.7117528 -0.01633554 25.70980835 -0.02572632 C48.10042539 0.14377786 68.09156843 6.29486641 84.33349609 22.20361328 C89.46219361 27.41529677 93.48534482 32.97385883 97.02099609 39.39111328 C97.72675781 40.6228125 97.72675781 40.6228125 98.44677734 41.87939453 C109.44555733 62.22227078 106.41013837 84.78444552 100.58349609 106.20361328 C100.3274762 107.15130081 100.3274762 107.15130081 100.06628418 108.11813354 C86.86123115 156.78368438 68.91023801 210.67086142 33.02099609 247.39111328 C32.16119141 248.31279297 31.30138672 249.23447266 30.41552734 250.18408203 C4.90843779 276.89682427 -33.57555681 293.33746152 -70.39422607 294.49884033 C-74.36397191 294.55576754 -78.33314442 294.58362603 -82.30322266 294.59423828 C-83.02554392 294.59706566 -83.74786518 294.59989304 -84.49207497 294.60280609 C-88.31543962 294.61770313 -92.13876746 294.62699218 -95.9621582 294.63134766 C-99.86387851 294.63681665 -103.76524716 294.66083882 -107.66685772 294.68931961 C-110.71019916 294.70814943 -113.7534593 294.71316227 -116.79685402 294.71468353 C-118.23304985 294.71766526 -119.66924587 294.72553703 -121.10538292 294.73886871 C-133.57177836 294.84633555 -146.55048557 293.8250503 -157.97900391 288.39111328 C-158.95095703 287.94251953 -159.92291016 287.49392578 -160.92431641 287.03173828 C-169.66150001 282.6941294 -176.16745686 277.28509963 -182.97900391 270.39111328 C-183.57326172 269.80716797 -184.16751953 269.22322266 -184.77978516 268.62158203 C-198.36785907 254.15449525 -202.87353662 234.79166647 -202.49853516 215.54345703 C-200.91117753 184.0193217 -186.54379936 149.04230511 -173.97900391 120.39111328 C-173.57359375 119.46508301 -173.16818359 118.53905273 -172.75048828 117.58496094 C-160.98095364 90.92042635 -148.50375552 66.36728905 -127.97900391 45.39111328 C-127.36798828 44.72982422 -126.75697266 44.06853516 -126.12744141 43.38720703 C-93.17756637 8.4083988 -45.73648997 -0.21587238 0 0 Z M-51.97900391 49.39111328 C-52.99027344 50.26316406 -52.99027344 50.26316406 -54.02197266 51.15283203 C-68.95950836 64.93465897 -74.416201 86.07945179 -81.16650391 104.57861328 C-81.96229177 106.75343662 -82.75835836 108.928158 -83.5546875 111.1027832 C-85.20772979 115.61746468 -86.85957595 120.13258131 -88.51074219 124.64794922 C-90.86690109 131.08834038 -93.2318627 137.52546674 -95.60009766 143.96142578 C-103.11427484 164.38409967 -110.6048721 184.81505784 -118.04150391 205.26611328 C-118.38965149 206.22329254 -118.73779907 207.1804718 -119.09649658 208.16665649 C-120.0696242 210.84283013 -121.04207182 213.51924949 -122.01416016 216.19580078 C-122.30177719 216.98704849 -122.58939423 217.7782962 -122.88572693 218.59352112 C-126.49746218 228.54739403 -127.97638272 238.13006409 -123.36962891 248.10595703 C-118.85238205 255.528961 -112.39534025 260.24753903 -104.23681641 262.97314453 C-85.77822433 266.39021954 -66.11791493 260.77279193 -50.77197266 250.52001953 C-34.70356597 238.27207318 -27.29854387 222.87842042 -20.66650391 204.32861328 C-19.97928978 202.44091649 -19.29069284 200.55372264 -18.60083008 198.66699219 C-17.13547409 194.652181 -15.67846328 190.63448288 -14.22802734 186.61425781 C-11.98766973 180.40727551 -9.72442019 174.20882134 -7.45556641 168.01220703 C-5.11240894 161.6114282 -2.7701135 155.21036064 -0.43701172 148.8059082 C3.71070754 137.42282553 7.87972254 126.04805878 12.08808708 114.68727493 C12.82130185 112.70763128 13.55399373 110.72779491 14.28651428 108.74789429 C14.76937087 107.44292925 15.25223521 106.13796707 15.73510742 104.83300781 C15.97233048 104.19189497 16.20955355 103.55078213 16.45396519 102.89024162 C17.6275914 99.71953276 18.80297493 96.54949458 19.98202515 93.38079834 C21.2916338 89.85953594 22.59619748 86.33643992 23.89990234 82.81298828 C24.2885849 81.77262421 24.67726746 80.73226013 25.07772827 79.66036987 C29.05664486 68.87773651 31.85631281 59.7316151 27.27099609 48.64111328 C23.26636308 40.51742916 17.56596527 35.65662926 9.28662109 32.27392578 C-11.67141558 26.60823644 -36.31622621 35.43147257 -51.97900391 49.39111328 Z " fill="#6C6D70" transform="translate(2165.97900390625,852.60888671875)"/>
<path d="M0 0 C0.95708359 0.00222061 1.91416718 0.00444122 2.9002533 0.00672913 C3.98129837 0.00680466 5.06234344 0.00688019 6.17614746 0.00695801 C7.94018166 0.01469994 7.94018166 0.01469994 9.73985291 0.02259827 C10.93702438 0.02401321 12.13419586 0.02542816 13.36764526 0.02688599 C17.20918732 0.03250472 21.05067208 0.04506041 24.89219666 0.05775452 C27.48920102 0.0627671 30.0862063 0.06733043 32.68321228 0.07142639 C39.06539344 0.08248024 45.44754096 0.0992366 51.82969666 0.12025452 C59.44468315 19.041996 66.9423159 38.0078938 74.39219666 56.99525452 C81.49155858 75.08880402 88.60771849 93.17540113 95.76719666 111.24525452 C96.15557709 112.22558655 96.54395752 113.20591858 96.94410706 114.21595764 C98.4720617 118.07265255 100.00009821 121.929315 101.52832031 125.78590393 C105.0667105 134.71613834 108.59907936 143.64874441 112.12709045 152.58308411 C112.74464251 154.1468371 113.36236855 155.7105214 113.9803009 157.27412415 C118.30126619 168.20822319 122.57750579 179.15922968 126.82969666 190.12025452 C128.92030317 188.029648 129.44935571 186.85184599 130.4393158 184.12513733 C130.8983857 182.87373207 130.8983857 182.87373207 131.36672974 181.5970459 C131.69611038 180.68173599 132.02549103 179.76642609 132.36485291 178.82337952 C132.7149794 177.86460403 133.0651059 176.90582855 133.42584229 175.91799927 C134.18610439 173.83410008 134.94380298 171.7492643 135.69926453 169.66362 C136.90728577 166.32859752 138.12171606 162.99597391 139.33799744 159.66395569 C141.01981595 155.05613133 142.69953584 150.44755013 144.3780365 145.83851624 C147.95540674 136.02494552 151.5790127 126.22855291 155.20469666 116.43275452 C155.89795415 114.55810255 156.59115024 112.68342787 157.2842865 110.80873108 C161.13544263 100.39422873 164.99181619 89.98165997 168.84922791 79.56947327 C169.27487534 78.42047546 169.70052277 77.27147766 170.1390686 76.08766174 C172.27777296 70.31461076 174.41696438 64.54174105 176.55699158 58.7691803 C180.44420643 48.28101758 184.32344007 37.79010825 188.17344666 27.28822327 C188.50596939 26.38198212 188.83849213 25.47574097 189.18109131 24.54203796 C190.71800772 20.35320008 192.25238646 16.16347284 193.78160095 11.97181702 C194.31183902 10.52515964 194.84218643 9.07854233 195.37266541 7.63197327 C195.61017517 6.97754745 195.84768494 6.32312164 196.09239197 5.64886475 C197.71610566 1.23384551 197.71610566 1.23384551 198.82969666 0.12025452 C200.18064648 0.02756453 201.53636756 0.00278125 202.89048767 0.00672913 C203.75130447 0.00680466 204.61212128 0.00688019 205.49902344 0.00695801 C206.43443466 0.01211929 207.36984589 0.01728058 208.33360291 0.02259827 C209.28661789 0.02401321 210.23963287 0.02542816 211.2215271 0.02688599 C214.27844831 0.032503 217.33529742 0.04505836 220.39219666 0.05775452 C222.45925289 0.06276733 224.52631027 0.06733061 226.59336853 0.07142639 C231.67217253 0.08247795 236.75092235 0.09975397 241.82969666 0.12025452 C240.17166052 5.79615952 238.44245693 11.3987672 236.34922791 16.93275452 C235.907724 18.10966858 235.46622009 19.28658264 235.01133728 20.49916077 C234.55952087 21.6941217 234.10770447 22.88908264 233.64219666 24.12025452 C232.72906513 26.53579855 231.81875318 28.95241099 230.91172791 31.37025452 C230.31195129 32.95580139 230.31195129 32.95580139 229.70005798 34.57337952 C228.72190477 36.98709694 228.72190477 36.98709694 228.82969666 39.12025452 C228.16969666 39.12025452 227.50969666 39.12025452 226.82969666 39.12025452 C226.72003571 39.67264297 226.61037476 40.22503143 226.49739075 40.79415894 C225.36121485 46.23515821 223.81958027 51.32018633 221.83750916 56.50697327 C221.54006805 57.30052216 221.24262695 58.09407104 220.93617249 58.91166687 C220.28893416 60.63637164 219.63896658 62.36005417 218.98655701 64.08280945 C217.92463188 66.88714981 216.86990698 69.69410784 215.81700134 72.50184631 C214.68198291 75.52842167 213.54654805 78.55483329 212.40904236 81.58047485 C208.34524946 92.39174004 204.33516938 103.22271714 200.3289032 114.05540466 C199.07159722 117.45465211 197.8133517 120.8535503 196.55479431 124.25233459 C192.6537535 134.78729463 188.75457103 145.32294157 184.85652161 155.85900879 C182.68137306 161.73792756 180.5056396 167.61662974 178.32969666 173.49525452 C177.91065063 174.62750458 177.49160461 175.75975464 177.05986023 176.92631531 C171.49709082 191.95419855 165.91300095 206.97370207 160.25352478 221.96546936 C159.82233337 223.10967346 159.39114197 224.25387756 158.94688416 225.43275452 C158.58191833 226.39826233 158.21695251 227.36377014 157.84092712 228.35853577 C157.17217809 230.18492135 156.53181852 232.02197865 155.92173767 233.86878967 C154.45813145 238.22656022 152.84768435 242.52489551 151.23985291 246.83119202 C150.8946611 247.75815887 150.5494693 248.68512573 150.19381714 249.6401825 C149.09423756 252.59223212 147.99322872 255.54374636 146.89219666 258.49525452 C146.15577634 260.47178267 145.4194473 262.44834483 144.68321228 264.42494202 C141.73946216 272.32617408 138.79267456 280.22621012 135.82969666 288.12025452 C129.88899008 288.21978949 123.94877839 288.29203606 118.00743103 288.33998108 C115.99009231 288.35998668 113.97281076 288.38720012 111.95567322 288.42201233 C109.04114093 288.47102029 106.12738106 288.49333415 103.21250916 288.51087952 C102.3235495 288.53152466 101.43458984 288.5521698 100.51869202 288.57344055 C93.89555833 288.57576693 88.7825675 286.96227239 82.82969666 284.12025452 C82.10836548 283.78440842 81.3870343 283.44856232 80.6438446 283.10253906 C70.68755713 277.71162962 66.92517112 258.5796208 63.45469666 248.80775452 C62.66149216 246.60694629 61.86678663 244.40667854 61.07066345 242.20692444 C59.43782121 237.69256698 57.81066207 233.17622537 56.18760681 228.65834045 C53.06244008 219.97429951 49.86318143 211.31806366 46.6547699 202.664505 C45.63516552 199.91378571 44.61741837 197.16238597 43.60020447 194.41078186 C36.57733408 175.41658459 29.53025303 156.43133284 22.48249912 137.44635677 C17.24736411 123.3440842 12.01943758 109.23930532 6.82969666 95.12025452 C3.96118489 101.37547531 1.40651543 107.69799767 -0.97889709 114.15150452 C-1.33736221 115.1144191 -1.69582733 116.07733368 -2.06515503 117.06942749 C-3.24893614 120.25196794 -4.42844407 123.43607307 -5.60780334 126.62025452 C-6.45301756 128.89594997 -7.29839881 131.1715834 -8.14393616 133.44715881 C-15.13388526 152.27237934 -22.07618529 171.11523975 -29.00502014 189.96302795 C-33.56678075 202.36751084 -38.14755296 214.76447628 -42.76222992 227.14935875 C-43.57079531 229.31964303 -44.37889656 231.49009956 -45.18684387 233.66061401 C-45.71875843 235.08946482 -46.25067978 236.5183131 -46.78260803 237.94715881 C-47.04381313 238.648817 -47.30501823 239.35047518 -47.57413864 240.07339573 C-49.12168842 244.22928931 -50.67270632 248.38386873 -52.22619629 252.5375452 C-52.9556472 254.48965853 -53.68340062 256.44239458 -54.41041565 258.39541626 C-55.2994483 260.78343826 -56.1912945 263.17041539 -57.08644104 265.55615234 C-57.47988708 266.61532364 -57.87333313 267.67449493 -58.27870178 268.76576233 C-58.79324921 270.14335724 -58.79324921 270.14335724 -59.31819153 271.54878235 C-60.15078133 274.0613417 -60.71113599 276.51595712 -61.17030334 279.12025452 C-61.83030334 279.12025452 -62.49030334 279.12025452 -63.17030334 279.12025452 C-63.29405334 280.04837952 -63.41780334 280.97650452 -63.54530334 281.93275452 C-64.17030334 285.12025452 -64.17030334 285.12025452 -66.17030334 288.12025452 C-68.0052948 288.48101807 -68.0052948 288.48101807 -70.25282288 288.46083069 C-71.0935434 288.4606041 -71.93426392 288.4603775 -72.80046082 288.46014404 C-73.70883698 288.44466019 -74.61721313 288.42917633 -75.55311584 288.41322327 C-76.48251984 288.40897842 -77.41192383 288.40473358 -78.36949158 288.40036011 C-81.3450539 288.38353463 -84.3199449 288.34587555 -87.29530334 288.30775452 C-89.3096165 288.29271267 -91.32394024 288.2790234 -93.33827209 288.26673889 C-98.28254214 288.23361846 -103.22630883 288.18180981 -108.17030334 288.12025452 C-107.50306578 282.30506442 -105.50005852 277.12208976 -103.47889709 271.67103577 C-103.10224411 270.64263077 -102.72559113 269.61422577 -102.33752441 268.55465698 C-101.09947785 265.17875603 -99.85377036 261.80573941 -98.60780334 258.43275452 C-97.73976383 256.07139731 -96.87209217 253.70990485 -96.004776 251.34828186 C-89.74887944 234.3309917 -83.43686229 217.33446085 -77.0994873 200.34736633 C-72.6831571 188.50939045 -68.29665635 176.66056201 -63.92030334 164.80775452 C-62.49461429 160.94704338 -61.0688268 157.08636861 -59.64295959 153.22572327 C-59.10130409 151.75912262 -59.10130409 151.75912262 -58.54870605 150.26289368 C-53.32230214 136.11428245 -48.08125901 121.97108877 -42.84120178 107.82752991 C-41.99647479 105.54750077 -41.15174823 103.26747147 -40.30702209 100.98744202 C-39.88675751 99.85312241 -39.46649292 98.7188028 -39.03349304 97.55010986 C-35.97933551 89.30604043 -32.92787525 81.06097539 -29.87733459 72.81556702 C-24.98085447 59.58162069 -20.0799543 46.34932078 -15.17030334 33.12025452 C-14.82984985 32.20286499 -14.48939636 31.28547546 -14.1386261 30.34028625 C-12.34944782 25.52090735 -10.55711704 20.70272782 -8.75868225 15.88679504 C-8.24751 14.51706091 -7.73723375 13.14699202 -7.22792053 11.77656555 C-6.55121468 9.956545 -5.87066096 8.13795645 -5.18983459 6.31947327 C-4.81963196 5.32778137 -4.44942932 4.33608948 -4.06800842 3.31434631 C-2.77486242 0.15375258 -2.77486242 0.15375258 0 0 Z " fill="#6C6D70" transform="translate(2349.1703033447266,855.8797454833984)"/>
<path d="M0 0 C27.06 0 54.12 0 82 0 C84.25 19.125 84.25 19.125 84.77200317 25.80189514 C84.83088176 26.54329268 84.88976034 27.28469023 84.95042312 28.04855436 C85.14078986 30.45539567 85.32654508 32.86256701 85.51220703 35.26977539 C85.65014771 37.0259775 85.78838085 38.78215666 85.92687988 40.53831482 C86.29746704 45.24767443 86.66402713 49.95733937 87.02979517 54.6670754 C87.41443433 59.61063013 87.80287318 64.55388636 88.19088745 69.49717712 C88.92304121 78.8320539 89.65183942 88.16718941 90.37939441 97.50242561 C91.20871566 108.141276 92.04183516 118.77982791 92.87525392 129.41835797 C94.58769146 151.27857874 96.29542353 173.13916494 98 195 C98.32931109 194.49928356 98.65862219 193.99856712 98.99791241 193.48267746 C128.92756986 147.9792397 128.92756986 147.9792397 140.66381836 130.68017578 C143.65246498 126.27487614 146.63199979 121.86341072 149.61328125 117.453125 C150.18337921 116.61027954 150.75347717 115.76743408 151.34085083 114.89904785 C156.18683995 107.73211472 160.9881351 100.53645565 165.7734375 93.32885742 C169.39901235 87.87766883 173.04669149 82.44220691 176.71432495 77.01924133 C177.88969372 75.28061972 179.06359151 73.54100288 180.2361145 71.80046082 C183.34290222 67.19259083 186.47271266 62.60369918 189.64941406 58.04370117 C196.14544233 48.65307843 202.02031494 39.31661856 207.15234375 29.109375 C220.95195791 2.56080927 220.95195791 2.56080927 230.84735107 -1.0345459 C245.86685468 -4.50047193 261.95956211 -2.47212543 277 0 C275.48372751 4.32734518 273.2118278 7.94946776 270.66015625 11.72265625 C270.22567169 12.37285233 269.79118713 13.0230484 269.34353638 13.69294739 C267.92095704 15.81913987 266.49176604 17.94079803 265.0625 20.0625 C264.07621811 21.53442636 263.09030066 23.00659699 262.10473633 24.47900391 C257.21663645 31.77311086 252.29706025 39.04548361 247.3515625 46.30078125 C246.9107988 46.9479158 246.4700351 47.59505035 246.01591492 48.26179504 C243.9257759 51.32952652 241.83139894 54.39419086 239.72875977 57.45336914 C238.98682373 58.5386792 238.2448877 59.62398926 237.48046875 60.7421875 C236.82973389 61.6894873 236.17899902 62.63678711 235.50854492 63.61279297 C233.86728266 65.99904208 233.86728266 65.99904208 233 69 C232.34 69 231.68 69 231 69 C230.66560913 69.99555908 230.66560913 69.99555908 230.32446289 71.01123047 C228.58227915 74.94262465 226.24784823 78.29078234 223.80859375 81.8203125 C223.30328629 82.56078827 222.79797882 83.30126404 222.27735901 84.06417847 C220.66859013 86.42091387 219.05364831 88.77332015 217.4375 91.125 C215.81822385 93.48411162 214.20040643 95.84416282 212.58692932 98.20724487 C211.58435386 99.67539867 210.57839055 101.14124591 209.56871033 102.60452271 C209.11476395 103.26886322 208.66081757 103.93320374 208.19311523 104.61767578 C207.79277573 105.19993927 207.39243622 105.78220276 206.97996521 106.3821106 C205.82664051 108.15172202 205.82664051 108.15172202 205 111 C204.34 111 203.68 111 203 111 C202.73711182 111.73234863 202.47422363 112.46469727 202.20336914 113.21923828 C200.98478513 116.03515872 199.61167524 118.06467777 197.74609375 120.4921875 C193.79491183 125.81440553 190.11082753 131.27991081 186.47265625 136.8203125 C185.88212463 137.7195343 185.29159302 138.6187561 184.6831665 139.54522705 C183.44627084 141.43125729 182.21016346 143.31780471 180.97479248 145.20483398 C177.73367893 150.15417606 174.48261838 155.0969673 171.23046875 160.0390625 C170.59526306 161.00438904 169.96005737 161.96971558 169.30560303 162.96429443 C162.67471022 173.02999101 155.91374191 183.0018415 149.09667969 192.94238281 C145.32351135 198.44484675 141.55820727 203.95261995 137.80181885 209.46655273 C136.52941485 211.33187826 135.25284348 213.19430149 133.97607422 215.05664062 C133.20257618 216.19125405 132.42929031 217.32601216 131.65625 218.4609375 C130.97369141 219.45915527 130.29113281 220.45737305 129.58789062 221.48583984 C127.87528436 223.97544165 127.87528436 223.97544165 127 227 C126.34 227 125.68 227 125 227 C124.72893433 227.73318954 124.45786865 228.46637909 124.17858887 229.2217865 C123.04595236 231.89167939 121.77200912 234.06002217 120.14257812 236.45141602 C119.56858276 237.29901993 118.9945874 238.14662384 118.40319824 239.01991272 C117.78545532 239.92213058 117.1677124 240.82434845 116.53125 241.75390625 C115.89513794 242.69177475 115.25902588 243.62964325 114.6036377 244.59593201 C112.57355291 247.58784806 110.53721442 250.57543496 108.5 253.5625 C106.46359239 256.55366894 104.42857351 259.54575798 102.3963623 262.53977966 C101.1324763 264.40132223 99.86604327 266.26113862 98.59680176 268.11903381 C98.0228064 268.96348557 97.44881104 269.80793732 96.85742188 270.67797852 C96.35271362 271.41790543 95.84800537 272.15783234 95.32800293 272.92018127 C93.9631236 274.96429057 93.9631236 274.96429057 92.9708252 277.15440369 C91.51545607 279.92114676 89.37859475 280.9946967 86.75 282.625 C85.81671875 283.21539063 84.8834375 283.80578125 83.921875 284.4140625 C76.94667697 288.20006571 70.85247255 288.28112511 63.07421875 288.23046875 C61.93088577 288.23001053 60.7875528 288.22955231 59.60957336 288.2290802 C57.20153765 288.22606662 54.79350374 288.21820718 52.38549805 288.20581055 C48.68336153 288.18747951 44.98147418 288.18530149 41.27929688 288.18554688 C38.94010199 288.18063426 36.6009088 288.17480707 34.26171875 288.16796875 C32.59153938 288.16629951 32.59153938 288.16629951 30.88761902 288.16459656 C29.8659816 288.15821671 28.84434418 288.15183685 27.79174805 288.14526367 C26.88829147 288.14145187 25.9848349 288.13764008 25.05400085 288.13371277 C23 288 23 288 22 287 C21.7937906 285.51403502 21.65079021 284.01924405 21.53337002 282.52364159 C21.45474427 281.55061667 21.37611852 280.57759175 21.29511017 279.57508123 C21.21242215 278.49330339 21.12973412 277.41152554 21.04454041 276.29696655 C20.95384783 275.15765643 20.86315525 274.0183463 20.76971442 272.84451163 C20.51780854 269.6680947 20.27004542 266.491385 20.0239886 263.31451058 C19.758033 259.89351681 19.48682449 256.47293913 19.21626282 253.05230713 C18.68651134 246.34403792 18.16168337 239.63539204 17.63851159 232.92660682 C17.02925869 225.11613307 16.4153098 217.30603064 15.8011877 209.49593849 C14.70536931 195.55764774 13.61404793 181.61900845 12.52514648 167.68017578 C11.46846814 154.15385451 10.40834602 140.62780884 9.34448242 127.10205078 C8.18684007 112.38392879 7.03088059 97.66567668 5.87805468 82.94717658 C5.81705752 82.16840645 5.75606035 81.38963633 5.69321479 80.58726711 C5.57070133 79.02309073 5.44819155 77.45891407 5.32568551 75.89473712 C4.89925483 70.45122305 4.47169241 65.00779855 4.04374504 59.56440353 C3.52187654 52.92559201 3.00204265 46.2866247 2.4847514 39.6474549 C2.22079335 36.26022665 1.95597972 32.87307128 1.68880081 29.48609543 C1.39949707 25.81256757 1.11355385 22.13879317 0.82847595 18.4649353 C0.74355721 17.39654179 0.65863847 16.32814828 0.57114643 15.2273792 C0.49512842 14.2387078 0.41911042 13.2500364 0.34078884 12.23140526 C0.27450014 11.38403183 0.20821143 10.53665841 0.13991398 9.663607 C-0.02907413 6.44650231 0 3.22153994 0 0 Z " fill="#6C6D70" transform="translate(1204,856)"/>
<path d="M0 0 C0.64709869 -0.00085442 1.29419739 -0.00170885 1.96090513 -0.00258917 C4.10885856 -0.00422395 6.25673223 0.00124429 8.40467834 0.00672913 C9.9524892 0.00701146 11.50030019 0.00685237 13.04811096 0.00628662 C17.23559124 0.00600044 21.42304271 0.01186824 25.61051631 0.01886058 C29.99206187 0.02512391 34.37360813 0.02570027 38.75515747 0.02688599 C47.04580865 0.02999052 55.33644659 0.03819207 63.62709194 0.04823548 C73.06842712 0.05942388 82.50976293 0.06491393 91.95110309 0.06993091 C111.36670663 0.08037542 130.78229787 0.09795786 150.19789124 0.12025452 C149.41212907 4.30526191 148.20483016 8.10000778 146.72914124 12.10072327 C146.48877136 12.75478653 146.24840149 13.40884979 146.00074768 14.08273315 C145.49477819 15.45744716 144.98705607 16.83151725 144.47767639 18.20497131 C143.69701603 20.31011461 142.92160415 22.41713266 142.14710999 24.52455139 C138.36398406 34.78806887 138.36398406 34.78806887 137.19789124 37.12025452 C136.25947183 37.12383705 136.25947183 37.12383705 135.30209446 37.12749195 C120.05213702 37.1867284 104.80235507 37.26233344 89.55257511 37.35596943 C82.17776993 37.40086059 74.80301232 37.44029047 67.42811584 37.46669006 C60.99723376 37.48972445 54.56650306 37.52318276 48.13574117 37.56895608 C44.733325 37.59281537 41.33105807 37.6115917 37.92856026 37.61786842 C34.12235984 37.62751518 30.3167018 37.65558339 26.51063538 37.68788147 C24.83396034 37.68572884 24.83396034 37.68572884 23.12341309 37.68353271 C15.49474797 37.77486103 9.01955882 38.77514032 2.44789124 42.80775452 C-3.11151326 48.52158691 -5.93675317 54.32297441 -6.11460876 62.30775452 C-5.83482743 81.82788275 15.96392675 99.01091073 28.89320374 111.80775452 C29.65828247 112.56506363 30.42336121 113.32237274 31.21162415 114.10263062 C34.37675463 117.23106959 37.54440662 120.35682304 40.72181702 123.47279358 C49.96985172 132.55240694 58.71598012 141.50884391 66.19789124 152.12025452 C66.6936969 152.80442444 67.18950256 153.48859436 67.70033264 154.1934967 C81.12804289 173.06573632 86.92355255 194.99257978 83.42445374 218.10121155 C79.47801599 240.76582279 66.97196708 260.75704769 48.19789124 274.12025452 C31.1805476 285.63269093 13.2626743 288.44175037 -6.83995056 288.3473053 C-8.53613274 288.34674016 -10.23231541 288.34705974 -11.92849731 288.34819031 C-16.50212382 288.34876082 -21.07564403 288.3370557 -25.64924598 288.32304239 C-30.44049516 288.31048441 -35.23174715 288.30936055 -40.02301025 288.30699158 C-49.08207169 288.30079164 -58.14108448 288.28440105 -67.20012456 288.2642926 C-77.5194026 288.24188719 -87.83868304 288.23092852 -98.15797937 288.22090173 C-119.37271625 288.20003342 -140.58740943 288.16488652 -161.80210876 288.12025452 C-157.73391375 275.67977947 -153.51727062 263.3313147 -148.80210876 251.12025452 C-148.13618776 251.11786616 -147.47026676 251.11547781 -146.78416634 251.11301708 C-130.54913222 251.05377194 -114.31426407 250.97816138 -98.07939339 250.8845396 C-90.22818981 250.8396549 -82.37703085 250.80022353 -74.52574158 250.77381897 C-67.6791797 250.75077935 -60.8327599 250.71731523 -53.98631084 250.67155296 C-50.36421118 250.64770073 -46.74225152 250.62891977 -43.12007523 250.62264061 C-39.06743236 250.61541926 -35.01527406 250.58491539 -30.9627533 250.55262756 C-29.17926231 250.5547802 -29.17926231 250.5547802 -27.35974121 250.55697632 C-19.00866349 250.46315288 -11.62298537 249.5713829 -4.48960876 244.99525452 C1.08607901 239.03056527 3.83538121 232.92351232 4.44789124 224.80775452 C3.93877216 217.29824818 0.49909045 211.49882137 -3.73960876 205.49525452 C-4.21688416 204.8101178 -4.69415955 204.12498108 -5.18589783 203.41908264 C-9.893557 196.78125262 -15.10753476 190.63247819 -20.51841736 184.56263733 C-22.15436337 182.72445379 -23.75784305 180.85894935 -25.36460876 178.99525452 C-28.36420411 175.58192189 -31.42343881 172.22370435 -34.48960876 168.87025452 C-34.95375183 168.36220276 -35.4178949 167.854151 -35.89610291 167.33070374 C-37.87441154 165.17598315 -39.87029436 163.05206892 -41.93882751 160.98353577 C-43.68889808 159.2334652 -45.31428264 157.43398189 -46.92710876 155.55775452 C-49.77743198 152.2628296 -52.71143234 149.06158023 -55.67710876 145.87025452 C-70.21994816 129.80472026 -80.87636914 111.29775595 -81.80210876 89.12025452 C-81.86205017 87.88468811 -81.86205017 87.88468811 -81.92320251 86.62416077 C-82.47863135 64.11295664 -74.73232982 42.9348724 -59.80210876 26.12025452 C-59.21042908 25.43447327 -58.61874939 24.74869202 -58.00914001 24.04212952 C-43.5241114 8.35258893 -21.07169381 -0.01687085 0 0 Z " fill="#6C6D70" transform="translate(1702.8021087646484,855.8797454833984)"/>
<path d="M0 0 C28.71 0 57.42 0 87 0 C86.32954564 4.02272619 85.79562242 6.9636523 84.43359375 10.64086914 C84.11656494 11.50519058 83.79953613 12.36951202 83.47290039 13.26002502 C82.9603772 14.63371498 82.9603772 14.63371498 82.4375 16.03515625 C82.0861499 16.99143417 81.7347998 17.9477121 81.37280273 18.93296814 C80.25352144 21.97801044 79.12738119 25.02044814 78 28.0625 C76.87318354 31.10832051 75.74796248 34.15469086 74.62719727 37.20274353 C73.93083381 39.09615632 73.23094281 40.98827643 72.52709961 42.87892151 C72.2100708 43.74009079 71.89304199 44.60126007 71.56640625 45.48852539 C71.28740479 46.24098038 71.00840332 46.99343536 70.72094727 47.76869202 C69.94870866 50.15874499 69.44771606 52.53034101 69 55 C68.34 55 67.68 55 67 55 C66.87265976 55.8813562 66.74531952 56.7627124 66.61412048 57.67077637 C66.04983757 60.72982433 65.26717016 63.36424003 64.17407227 66.26757812 C63.80020889 67.26881714 63.42634552 68.27005615 63.04115295 69.30163574 C62.63698654 70.36740845 62.23282013 71.43318115 61.81640625 72.53125 C61.40083969 73.64052856 60.98527313 74.74980713 60.55711365 75.8927002 C59.23068947 79.43041201 57.89686211 82.9652755 56.5625 86.5 C55.23322263 90.03527633 53.90547341 93.5711213 52.57859802 97.1072998 C51.75339361 99.30497182 50.9265278 101.50202089 50.09779358 103.69836426 C48.31183516 108.44132864 46.56949261 113.18000801 45 118 C44.46809862 119.46663868 43.92824272 120.93042723 43.37890625 122.390625 C42.93720093 123.57241333 42.93720093 123.57241333 42.48657227 124.77807617 C42.18162842 125.59381104 41.87668457 126.4095459 41.5625 127.25 C39.13644357 133.77773922 36.87073954 140.28734634 35 147 C34.34 147 33.68 147 33 147 C33 148.98 33 150.96 33 153 C32.34 153 31.68 153 31 153 C30.79697266 154.07507813 30.79697266 154.07507813 30.58984375 155.171875 C30.0192924 157.90749871 29.33803096 160.56577884 28.5625 163.25 C28.31628906 164.12140625 28.07007813 164.9928125 27.81640625 165.890625 C27 168 27 168 25 169 C24.64518824 170.99630151 24.31642182 172.9972548 24 175 C23.21829442 177.29346743 22.37897232 179.56776536 21.49609375 181.82421875 C21.2533522 182.45229935 21.01061066 183.08037994 20.76051331 183.72749329 C19.99157002 185.71630825 19.2153774 187.70216393 18.4375 189.6875 C17.65631737 191.68364176 16.87692417 193.68037368 16.10377502 195.67964172 C15.40528643 197.48580286 14.6997702 199.28924156 13.99389648 201.0925293 C12.83826754 203.96101072 12.83826754 203.96101072 13 207 C12.34 207 11.68 207 11 207 C10.91766113 207.76231934 10.83532227 208.52463867 10.75048828 209.31005859 C9.7076339 214.43748249 7.8485819 219.15603538 5.9921875 224.0390625 C5.58847931 225.11513763 5.18477112 226.19121277 4.76882935 227.29989624 C3.47602296 230.74355535 2.17595699 234.1844127 0.875 237.625 C-0.81815456 242.11604419 -2.50784955 246.60837683 -4.1953125 251.1015625 C-4.60654358 252.19486877 -5.01777466 253.28817505 -5.44146729 254.41461182 C-8.35696456 262.19688221 -11.15662201 270.01348061 -13.83792114 277.87954712 C-14.09620697 278.63263153 -14.3544928 279.38571594 -14.62060547 280.16162109 C-14.9505098 281.13523087 -14.9505098 281.13523087 -15.28707886 282.12850952 C-16.05457257 284.14325853 -17.03581535 286.0716307 -18 288 C-46.71 288 -75.42 288 -105 288 C-104.32588815 283.95532892 -103.77615643 280.98139679 -102.41210938 277.27539062 C-102.08596649 276.38136032 -101.75982361 275.48733002 -101.42379761 274.56620789 C-101.0673819 273.60592178 -100.71096619 272.64563568 -100.34375 271.65625 C-99.97001251 270.63654617 -99.59627502 269.61684235 -99.21121216 268.5662384 C-97.97922017 265.20893456 -96.73967551 261.85447352 -95.5 258.5 C-94.63157183 256.1384219 -93.76357628 253.77668468 -92.89599609 251.41479492 C-90.68670698 245.40476665 -88.47093058 239.39715654 -86.25231934 233.39056396 C-85.09224784 230.24975436 -83.93311287 227.10860137 -82.77441406 223.96728516 C-79.33165931 214.63501064 -75.88262277 205.30507453 -72.4296875 195.9765625 C-67.52270776 182.71860797 -62.63585394 169.45325152 -57.75 156.1875 C-57.30996643 154.99283112 -56.86993286 153.79816223 -56.41656494 152.56729126 C-54.1740594 146.47899256 -51.93170621 140.39063777 -49.68945312 134.30224609 C-47.03826867 127.10365387 -44.38642993 119.90530282 -41.734375 112.70703125 C-41.30151184 111.53212631 -40.86864868 110.35722137 -40.42266846 109.14671326 C-38.25231239 103.25587316 -36.08181572 97.36508491 -33.91113281 91.47436523 C-29.82263108 80.37868617 -25.73540074 69.2825431 -21.65246582 58.18481445 C-19.96615094 53.60131356 -18.27922003 49.01803945 -16.59215546 44.43481445 C-15.44413798 41.31586399 -14.29658003 38.19674623 -13.1496582 35.07739258 C-11.88187992 31.62940374 -10.61293027 28.18184798 -9.34375 24.734375 C-8.97693115 23.73577454 -8.6101123 22.73717407 -8.23217773 21.70831299 C-5.55578398 14.44348854 -2.78007396 7.22819231 0 0 Z " fill="#D61820" transform="translate(781,856)"/>
<path d="M0 0 C27.39 0 54.78 0 83 0 C82.34 2.97 81.68 5.94 81 9 C80.34 9 79.68 9 79 9 C78.90138672 9.80373047 78.80277344 10.60746094 78.70117188 11.43554688 C77.83473915 15.84011436 76.36224409 19.83920132 74.78125 24.03125 C74.45113419 24.91986221 74.12101837 25.80847443 73.78089905 26.72401428 C72.69222345 29.65121641 71.59610776 32.5755737 70.5 35.5 C69.74024848 37.53877418 68.98106069 39.57775851 68.22241211 41.61694336 C66.63330065 45.88718546 65.04171483 50.15649424 63.44873047 54.42529297 C61.00570173 60.9777776 58.58041592 67.53673222 56.16015625 74.09765625 C55.7718161 75.15024628 55.38347595 76.2028363 54.98336792 77.287323 C53.84291989 80.37899015 52.70269242 83.47073857 51.5625 86.5625 C50.14813647 90.39750585 48.73273323 94.23212513 47.31640625 98.06640625 C47.00880875 98.90083755 46.70121124 99.73526886 46.3842926 100.59498596 C46.09835739 101.36874069 45.81242218 102.14249542 45.51782227 102.93969727 C45.2715358 103.60703384 45.02524933 104.27437042 44.77149963 104.96192932 C44.20880724 106.44839389 43.62714107 107.92771638 43.03442383 109.40246582 C41.94997532 112.12561662 40.9340636 114.86655185 39.93139648 117.62084961 C39.52533173 118.73495209 39.11926697 119.84905457 38.70089722 120.99691772 C38.26206207 122.20320831 37.82322693 123.4094989 37.37109375 124.65234375 C36.90464347 125.93253892 36.43809877 127.21269968 35.97146606 128.49282837 C34.97715455 131.22077498 33.98319893 133.94885084 32.98953247 136.67703247 C30.37840147 143.84552059 27.76419507 151.0128864 25.1484375 158.1796875 C24.88632288 158.89784449 24.62420826 159.61600147 24.35415077 160.35592079 C18.80580335 175.5543402 13.20773568 190.73418803 7.58178711 205.90405273 C5.71651429 210.93431402 3.85665606 215.96655245 2 221 C1.63638367 221.98425964 1.27276733 222.96851929 0.89813232 223.98260498 C-0.22903445 227.03788503 -1.35144 230.09487563 -2.47265625 233.15234375 C-2.82508896 234.10613419 -3.17752167 235.05992462 -3.54063416 236.0426178 C-3.8624617 236.92308273 -4.18428925 237.80354767 -4.51586914 238.71069336 C-4.94640343 239.88238319 -4.94640343 239.88238319 -5.38563538 241.07774353 C-6.10147841 242.98116984 -6.10147841 242.98116984 -6 245 C-6.66 245 -7.32 245 -8 245 C-8.10505859 245.82145508 -8.21011719 246.64291016 -8.31835938 247.48925781 C-9.11406848 251.58750171 -10.43023648 255.27765898 -11.90625 259.171875 C-12.33339294 260.31731781 -12.33339294 260.31731781 -12.76916504 261.48590088 C-13.67438877 263.90919436 -14.58721226 266.32954701 -15.5 268.75 C-16.11375366 270.39175055 -16.72703977 272.03367598 -17.33984375 273.67578125 C-21.80668937 285.61337874 -21.80668937 285.61337874 -23 288 C-50.06 288 -77.12 288 -105 288 C-103.59930371 281.69686669 -102.08370011 276.03013521 -99.82421875 270.0625 C-99.50731583 269.21056564 -99.1904129 268.35863129 -98.86390686 267.48088074 C-98.17412055 265.62864739 -97.48163557 263.77741728 -96.78674316 261.92709351 C-95.65692586 258.91858638 -94.5341295 255.90753871 -93.41308594 252.89575195 C-92.20725604 249.65654074 -91.00093722 246.41751916 -89.79251099 243.17927551 C-85.51542437 231.71710182 -81.28739139 220.23701094 -77.06289673 208.75537109 C-75.28927277 203.93544769 -73.5140345 199.11611949 -71.73881531 194.29678345 C-70.38888347 190.63199085 -69.03914931 186.96712549 -67.68945312 183.30224609 C-63.73008242 172.55161908 -59.76923035 161.80153784 -55.80847168 151.05142212 C-53.62225203 145.11763774 -51.43613107 139.18381701 -49.25 133.25 C-48.37500047 130.87499983 -47.50000047 128.49999983 -46.625 126.125 C-46.191875 124.949375 -45.75875 123.77375 -45.3125 122.5625 C-41.375 111.875 -41.375 111.875 -40.06278992 108.31329346 C-39.18681787 105.93565068 -38.31085149 103.55800582 -37.43489075 101.18035889 C-35.26230924 95.28327628 -33.08963283 89.38622868 -30.91674805 83.48925781 C-26.80114444 72.31964383 -22.68656445 61.14965521 -18.57510376 49.97851562 C-16.86264276 45.32565693 -15.1497301 40.67296456 -13.43671608 36.02030945 C-12.26520698 32.83830632 -11.09396395 29.65620578 -9.92333984 26.47387695 C-8.63311282 22.9667289 -7.34203801 19.45989403 -6.05078125 15.953125 C-5.66847855 14.91323425 -5.28617584 13.87334351 -4.89228821 12.80194092 C-4.36226448 11.36325653 -4.36226448 11.36325653 -3.8215332 9.89550781 C-3.36361137 8.6511496 -3.36361137 8.6511496 -2.8964386 7.38165283 C-1.96533062 4.90789059 -0.9816567 2.45414176 0 0 Z " fill="#6C6D70" transform="translate(1908,856)"/>
<path d="M0 0 C27.06 0 54.12 0 82 0 C81.25595083 4.46429504 80.47603737 7.8354699 78.94970703 11.98828125 C78.52480988 13.15230469 78.09991272 14.31632813 77.66213989 15.515625 C77.19413175 16.78128735 76.72601954 18.04691122 76.2578125 19.3125 C75.76946845 20.64436285 75.28159375 21.97639787 74.79415894 23.30859375 C73.50428399 26.83002962 72.20811764 30.34911715 70.9105835 33.86773682 C69.63460833 37.33104134 68.36438805 40.79645339 67.09375 44.26171875 C63.26943991 54.6859604 59.44126641 65.10876922 55.58756447 75.52218628 C54.55101112 78.32453063 53.51689068 81.12776923 52.48315048 83.93115234 C51.99231736 85.26020913 51.50030004 86.58882923 51.00705338 87.91699219 C50.32846711 89.74437017 49.65411148 91.57331752 48.97998047 93.40234375 C48.40447952 94.95683228 48.40447952 94.95683228 47.81735229 96.54272461 C46.89479228 98.88468718 46.89479228 98.88468718 47 101 C46.34 101 45.68 101 45 101 C44.90138672 101.80373047 44.80277344 102.60746094 44.70117188 103.43554688 C43.83473915 107.84011436 42.36224409 111.83920132 40.78125 116.03125 C40.45113419 116.91986221 40.12101837 117.80847443 39.78089905 118.72401428 C38.69222345 121.65121641 37.59610776 124.5755737 36.5 127.5 C35.74024848 129.53877418 34.98106069 131.57775851 34.22241211 133.61694336 C32.63330065 137.88718546 31.04171483 142.15649424 29.44873047 146.42529297 C27.00570173 152.9777776 24.58041592 159.53673222 22.16015625 166.09765625 C21.7718161 167.15024628 21.38347595 168.2028363 20.98336792 169.287323 C19.84291989 172.37899015 18.70269242 175.47073857 17.5625 178.5625 C16.14813647 182.39750585 14.73273323 186.23212513 13.31640625 190.06640625 C13.00880875 190.90083755 12.70121124 191.73526886 12.3842926 192.59498596 C12.09835739 193.36874069 11.81242218 194.14249542 11.51782227 194.93969727 C11.2715358 195.60703384 11.02524933 196.27437042 10.77149963 196.96192932 C10.21332822 198.43645081 9.63651174 199.90395922 9.04830933 201.36676025 C7.88405328 204.29124562 6.79252035 207.23669101 5.70922852 210.19213867 C5.25858536 211.42079147 4.8079422 212.64944427 4.34364319 213.91532898 C3.85529477 215.24950462 3.36705178 216.58371886 2.87890625 217.91796875 C2.63073591 218.59595331 2.38256557 219.27393787 2.12687492 219.97246742 C0.81277187 223.56277914 -0.5003647 227.15344267 -1.81274414 230.74438477 C-3.15955427 234.42892022 -4.50975487 238.11220342 -5.86074734 241.79520702 C-6.90680795 244.64890854 -7.95026804 247.50355608 -8.99305916 250.35845375 C-9.48920456 251.71538861 -9.98630633 253.07197422 -10.48443413 254.4281826 C-12.98778634 261.24648206 -15.42281389 268.0564552 -17.41783142 275.04438782 C-18.13608017 277.45711852 -19.06056676 279.72026897 -20.125 282 C-20.45757813 282.721875 -20.79015625 283.44375 -21.1328125 284.1875 C-21.74354247 285.46398065 -22.36716607 286.73433213 -23 288 C-50.06 288 -77.12 288 -105 288 C-104.26998256 283.61989537 -103.53732176 280.33023491 -102.04492188 276.265625 C-101.43564346 274.59440331 -101.43564346 274.59440331 -100.8140564 272.88941956 C-100.37010529 271.6884111 -99.92615417 270.48740265 -99.46875 269.25 C-99.00074518 267.97252928 -98.53319574 266.69489164 -98.06607056 265.417099 C-96.8110505 261.98823653 -95.54949074 258.56181461 -94.28659821 255.13584518 C-92.96586889 251.54967714 -91.65106436 247.96133761 -90.33544922 244.37329102 C-87.46598251 236.55134921 -84.58749188 228.73274861 -81.70591736 220.91526031 C-80.64371172 218.03333613 -79.58218405 215.15116222 -78.52050781 212.26904297 C-74.36210123 200.98433659 -70.18957774 189.70488941 -66.01074219 178.42773438 C-62.58527209 169.18292158 -59.16776984 159.93516165 -55.75 150.6875 C-55.40394714 149.75127808 -55.05789429 148.81505615 -54.70135498 147.85046387 C-48.70734097 131.63324315 -42.72648783 115.41118688 -36.75 99.1875 C-36.31546509 98.00799774 -35.88093018 96.82849548 -35.43322754 95.61325073 C-31.07578122 83.78513307 -26.71942835 71.95661453 -22.3670845 60.12661839 C-20.44046987 54.88994722 -18.51328315 49.65348682 -16.58573532 44.41715908 C-15.44020908 41.30510631 -14.295157 38.19288098 -13.15075684 35.08041382 C-11.88260991 31.6314188 -10.61329423 28.18285589 -9.34375 24.734375 C-8.97691101 23.73571915 -8.61007202 22.73706329 -8.2321167 21.70814514 C-5.55574177 14.44337721 -2.78005261 7.22813678 0 0 Z " fill="#6C6D70" transform="translate(1513,856)"/>
<path d="M0 0 C5.57160957 3.82053227 10.21045068 9.17510962 12.44140625 15.63671875 C14.14201216 25.78489967 13.10803325 34.14538989 7.55078125 42.70703125 C3.0400808 48.69139804 -3.8779768 52.35165838 -11.19921875 53.78125 C-20.57937383 54.80119556 -29.14454135 52.56368146 -36.57421875 46.65625 C-42.31680216 41.13770988 -45.80123289 34.04550709 -46.265625 26.06640625 C-45.98941156 16.56141443 -42.95709522 9.13352959 -36.07421875 2.53125 C-25.43230719 -5.93601006 -11.71712918 -6.49332914 0 0 Z M-33.97265625 11.90234375 C-37.86335255 17.86229573 -37.9094227 23.86799887 -37.19921875 30.78125 C-35.46515211 37.02181319 -31.51850531 41.24281868 -26.19921875 44.78125 C-20.88416828 47.26914596 -15.52411649 47.72396294 -9.8984375 46.12890625 C-3.12465452 43.4763156 0.99337228 39.47822289 4.17578125 32.96875 C5.7619943 24.87906342 5.40466863 17.82169767 0.80078125 10.78125 C-3.19252627 6.36211585 -7.43066427 3.19997828 -13.44921875 2.53125 C-22.52465353 2.08854586 -28.22471867 4.98234068 -33.97265625 11.90234375 Z " fill="#6B6D70" transform="translate(2641.19921875,857.21875)"/>
<path d="M0 0 C1.66869141 -0.02126953 1.66869141 -0.02126953 3.37109375 -0.04296875 C7.48152085 0.25386748 10.36093779 1.10609401 13.4375 3.875 C15.09833755 7.28894385 14.48202707 9.57507223 13.5625 13.1875 C12 15.125 12 15.125 10.5625 16.1875 C11.03300781 16.73921875 11.50351563 17.2909375 11.98828125 17.859375 C13.7427113 20.45401597 14.22508637 22.36877415 14.75 25.4375 C14.90855469 26.32953125 15.06710938 27.2215625 15.23046875 28.140625 C15.34003906 28.81609375 15.44960937 29.4915625 15.5625 30.1875 C12.9225 30.1875 10.2825 30.1875 7.5625 30.1875 C7.34335938 29.47722656 7.12421875 28.76695312 6.8984375 28.03515625 C5.94528428 25.27256175 4.99569302 22.73684637 3.5625 20.1875 C0.45154363 18.88639182 0.45154363 18.88639182 -2.4375 19.1875 C-2.4375 22.8175 -2.4375 26.4475 -2.4375 30.1875 C-5.0775 30.1875 -7.7175 30.1875 -10.4375 30.1875 C-10.4375 20.6175 -10.4375 11.0475 -10.4375 1.1875 C-6.72663753 0.25978438 -3.79791226 0.02195325 0 0 Z M-2.4375 6.1875 C-2.4375 8.4975 -2.4375 10.8075 -2.4375 13.1875 C2.3522321 13.42178313 2.3522321 13.42178313 6.5625 11.1875 C6.06493908 8.43108584 6.06493908 8.43108584 4.5625 6.1875 C2.22952567 6.14657063 -0.10455225 6.14508277 -2.4375 6.1875 Z " fill="#6C6C6E" transform="translate(2623.4375,866.8125)"/>
</svg>
